<?xml version="1.0" encoding="UTF-8"?>
<svg id="Laag_1" xmlns="http://www.w3.org/2000/svg" version="1.1" viewBox="0 0 558.55 558.55">
  <!-- Generator: Adobe Illustrator 29.3.1, SVG Export Plug-In . SVG Version: 2.1.0 Build 151)  -->
  <defs>
    <style>
      .st0, .st1 {
        fill: #fff;
      }

      .st1 {
        stroke: #fff;
        stroke-miterlimit: 10;
      }
    </style>
  </defs>
  <path class="st0" d="M480.48,189.19c19.88-3.14,34.44,20.07,38.25,36.69,4.25,18.57-1.85,43.52-9.51,60.7-3.11,6.98-7.62,11.52-11.71,17.71-2.49,3.76-4.23,8.26-7.08,11.99-25.18,32.88-68.84,49.41-106.67,62.25-3.57,1.21-12.32,5.95-14.85,8.58-2.65,2.75-3.22,6.22.05,8.71,1.21.92,5.99,3.2,7.45,3.44,4.07.69,14.51.02,18.93-.42,12.37-1.25,23.02-9.08,34.74-13.22,17.74-6.26,45.32-9.11,57.33,8.9,11.41,17.12-7.16,30.66-21.34,36.34-22.51,9.03-52.09,17.19-76.17,19.74-8.62.91-22.63.46-30.39,3.4-7.61,2.89-13.36,11.93-18.91,17.59.67.98,1.39.84,2.42.83,5.1-.07,12.63-2.1,18.08-2.67,21.5-2.24,39.6-2.07,60.7,2.92,13.74,3.25,35.49,8.55,44.96,19.35,7.78,8.88,11.38,23.47-.32,30.75-21.29,13.25-53.2-3.66-75.57-6.62-6.03-.8-21.38,2.94-28.03,4.39-32.33,7.04-74.8,26.8-107.36,18.2-13.21-3.49-28.1-12.65-25.99-28.41,3.4-25.5,55.14-40.49,73.24-54.28,15.99-12.18,24.93-36.09,23.74-55.87-1.09-18-9.04-31.78-5.33-50.52,1.07-5.4,3.55-7.84,8.2-10.32,18.28-9.74,40.53-14.44,58.31-25.61,33.18-20.85,44.54-37.1,58.54-73.33,6.17-15.96,14-48.02,34.32-51.23Z"/>
  <path class="st0" d="M332.23,248.83c-2.04,2.8-6.45,6.2-9.09,8.61-12.21,11.18-21.9,14.59-35.6,22.7-22.41,13.27-38.27,25.29-66.05,25-6.8-.07-13.82-.45-20.71-.54-15.5-.22-33.67-1.72-49.01-.01-13.48,1.5-35.66,22.92-24.54,37.05,9.26,11.77,23.97,11.04,37.6,9.8,16.88-1.55,33-11.8,47.68-19.35,16.47-8.47,33.63-11.37,51.52-4.63,8.16,3.08,30.08,17.28,35.69,23.7,6.29,7.2,10.61,25.59,12.69,35.26,4.41,20.47,3.68,28.2-8.67,45.08-20.59,28.16-72.34,25.84-102.8,37.24-6.88,2.57-13.18,6.51-19.88,9-12.12,4.49-31.2,9.26-44.01,9.93-12.7.67-26.16-4.79-37.85-9.55-20.26-8.25-36.15-17.86-49.89-35.12-14.46-18.17-15.82-42.83,13.58-41.92,8.73,3.03,15.92,10.66,23.58,16.2,7.15,5.17,15.38,11.25,22.67,16.02,10.61,6.95,23.52,9.05,36.09,9.68,24.8,1.26,40.2-15.52,61.73-22.72,16.21-5.43,42.42-5.41,54.9-17.03,6.3-5.86,4.65-22.22-1.43-27.5-6.26-5.45-22.62-7.92-30.77-7.41-25.07,1.55-50.02,35.41-76.82,37.61-27.87,2.28-51.05-10.4-71.11-28.05-16.16-14.22-25.01-34.2-22.81-56.07,2.75-27.47,30.05-26.76,50.06-32.22,9.64-2.63,18.99-7.27,28.6-10.09,18.6-5.46,40.06-5.98,59.43-6.01,21.12-.03,51.44-1.31,64.78-20.72,10.08-14.67-3.43-41.94,17.33-48.6,13.89-4.46,28.34-8.55,42.4-12.09,7.42-1.87,15.53-6.55,20.9,1.92,10.53,16.61.17,40.58-10.2,54.82Z"/>
  <path class="st0" d="M396.05,5.58c7.24-.24,14.45-.76,21.36,1.75,16.81,6.12,22.94,25.88,5.82,35.78-20.84,12.05-46.71-2.62-68.22,15.7-6.58,5.61-8.25,9.97-3.43,17.62,11.45,18.15,38.61,25.63,54.94,39.87,19.72,17.2,38.65,60.57,35.95,86.64-3.97,38.39-24.2,68.27-54.22,91.27-16.39,12.56-32.96,16.83-51.31,24.98-10.12,4.5-21.43,12.2-32.61,13.17-11.74,1.01-36.66-3.14-29.54-20.28,8.74-21.03,36.19-25.23,50.81-41.83,2.18-2.47,3.51-5.18,5.97-7.65,10.27-10.31,20.49-15.44,26.7-29.97,7.14-16.67,8.95-28.78,6.1-46.95-5.46-34.86-36.29-60.33-56.18-87.13-18.72-25.22-9.63-45.17,12.81-62.85,21.2-16.71,47.75-29.21,75.04-30.13Z"/>
  <path class="st0" d="M193.33,64.42c15.21-1.82,25.03,11.5,21.34,25.7-6.28,24.13-28.44,41.38-43.84,59.15-10.8,12.46-29.2,35.1-36.07,49.48-2.11,4.41-6.19,13.74-6.19,18.37,0,8.51,5.82,15.53,14.46,16.09,6.18.4,27.32-6.65,33.82-9.27,13.04-5.26,20.51-19.54,35.46-21.21,14.04-1.57,36.06,8.71,40.96,22.68,11.22,32.01-34.04,39.29-55.75,38.32-20.93-.94-36.46-2.88-57.34,3.1-15.81,4.53-33.86,13.36-50.13,15.26-25.63,3-32.51-21.69-28.87-42.49,5.51-31.46,24.63-48.29,46.46-68.52s24.78-43.29,38.66-67.6c8.43-14.75,29.4-36.96,47.03-39.07Z"/>
  <path class="st1" d="M262,52.45c9.37-.6,22.5,2.38,24.93,12.88s1.01,17.48,6.14,27.65c12.43,24.65,59.68,48.08,36.3,80.24-6.8,9.35-30.51,13.13-41.22,16-13.41,3.59-25.32,9.63-39.68,6.67-4.17-.86-8-2.98-12.1-4.25-20.31-6.31-32.13-1.18-48.08,11.07-9.65,7.41-16.54,17.46-29.99,17.47-11.78,0-14.29-8.33-12.68-18.72,2.38-15.31,32.11-47.14,43.45-59,12.92-13.52,29.77-25.65,35.69-44.42,3.22-10.21.44-19.49,6.61-28.81,6.84-10.34,18.32-15.99,30.63-16.78ZM263.06,92.2c-13.59,1.78-14.98,18.91-19.56,28.93-3.28,7.18-7.8,11.76-13.83,16.69-3.02,2.47-10.83,6.53-11.58,10.22-1.5,7.34,7.96,8.91,13.3,9.88,12.77,2.31,27.62,3.07,39.8-2,22.04-9.17,6.49-26.64,4.13-41.92-1.42-9.19,2.12-23.67-12.26-21.79Z"/>
</svg>